<svg width="400" height="572" viewBox="0 0 400 572" fill="none" xmlns="http://www.w3.org/2000/svg">
<rect width="400" height="572" rx="30" fill="#FECB00"/>
<rect x="13" y="17" width="374" height="537" rx="27" fill="#FECB00" stroke="black" stroke-width="6"/>
<path d="M44 17H356C370.912 17 383 29.0883 383 44V148H17V44C17 29.3214 28.7133 17.3786 43.3027 17.0088L44 17Z" fill="black" stroke="black" stroke-width="6"/>
<path d="M138.07 441C137.557 441 137.254 440.743 137.16 440.23L127.71 392.91L127.64 392.63C127.64 392.21 127.897 392 128.41 392H136.95C137.51 392 137.814 392.257 137.86 392.77L141.85 417.97C141.897 418.157 141.967 418.25 142.06 418.25C142.154 418.25 142.224 418.157 142.27 417.97L146.05 392.77C146.097 392.257 146.4 392 146.96 392H154.03C154.59 392 154.894 392.257 154.94 392.77L159.07 417.97C159.117 418.157 159.187 418.25 159.28 418.25C159.374 418.25 159.444 418.157 159.49 417.97L163.06 392.77C163.107 392.257 163.41 392 163.97 392H172.23C172.837 392 173.094 392.303 173 392.91L164.11 440.23C164.064 440.743 163.76 441 163.2 441H155.64C155.08 441 154.777 440.743 154.73 440.23L150.6 414.33C150.554 414.143 150.484 414.05 150.39 414.05C150.297 414.05 150.227 414.143 150.18 414.33L146.47 440.23C146.424 440.743 146.12 441 145.56 441H138.07ZM189.86 441.56C185.567 441.56 182.137 440.3 179.57 437.78C177.003 435.26 175.72 431.9 175.72 427.7V405.3C175.72 401.1 177.003 397.74 179.57 395.22C182.137 392.7 185.567 391.44 189.86 391.44C194.153 391.44 197.583 392.7 200.15 395.22C202.763 397.74 204.07 401.1 204.07 405.3V427.7C204.07 431.9 202.763 435.26 200.15 437.78C197.583 440.3 194.153 441.56 189.86 441.56ZM189.86 433.09C191.167 433.09 192.217 432.647 193.01 431.76C193.803 430.827 194.2 429.613 194.2 428.12V404.88C194.2 403.387 193.803 402.197 193.01 401.31C192.217 400.377 191.167 399.91 189.86 399.91C188.553 399.91 187.503 400.377 186.71 401.31C185.963 402.197 185.59 403.387 185.59 404.88V428.12C185.59 429.613 185.963 430.827 186.71 431.76C187.503 432.647 188.553 433.09 189.86 433.09ZM228.826 441C228.312 441 227.986 440.767 227.846 440.3L222.456 420.98C222.362 420.793 222.246 420.7 222.106 420.7H219.726C219.492 420.7 219.376 420.817 219.376 421.05V440.16C219.376 440.393 219.282 440.603 219.096 440.79C218.956 440.93 218.769 441 218.536 441H210.346C210.112 441 209.902 440.93 209.716 440.79C209.576 440.603 209.506 440.393 209.506 440.16V392.84C209.506 392.607 209.576 392.42 209.716 392.28C209.902 392.093 210.112 392 210.346 392H224.486C227.052 392 229.339 392.63 231.346 393.89C233.352 395.103 234.892 396.83 235.966 399.07C237.086 401.31 237.646 403.877 237.646 406.77C237.646 409.523 237.109 411.95 236.036 414.05C235.009 416.15 233.562 417.783 231.696 418.95C231.602 418.997 231.532 419.067 231.486 419.16C231.439 419.207 231.439 419.277 231.486 419.37L237.926 440.02L237.996 440.3C237.996 440.767 237.739 441 237.226 441H228.826ZM219.726 400.47C219.492 400.47 219.376 400.587 219.376 400.82V412.79C219.376 413.023 219.492 413.14 219.726 413.14H222.876C224.322 413.14 225.489 412.58 226.376 411.46C227.309 410.293 227.776 408.753 227.776 406.84C227.776 404.88 227.309 403.34 226.376 402.22C225.489 401.053 224.322 400.47 222.876 400.47H219.726ZM243.295 441C243.062 441 242.852 440.93 242.665 440.79C242.525 440.603 242.455 440.393 242.455 440.16V392.84C242.455 392.607 242.525 392.42 242.665 392.28C242.852 392.093 243.062 392 243.295 392H251.485C251.718 392 251.905 392.093 252.045 392.28C252.232 392.42 252.325 392.607 252.325 392.84V410.48C252.325 410.667 252.372 410.783 252.465 410.83C252.605 410.83 252.698 410.737 252.745 410.55L261.775 392.63C262.008 392.21 262.335 392 262.755 392H271.435C271.762 392 271.972 392.093 272.065 392.28C272.205 392.42 272.205 392.653 272.065 392.98L261.705 413.14C261.658 413.327 261.635 413.467 261.635 413.56L272.625 440.02C272.672 440.113 272.695 440.253 272.695 440.44C272.695 440.813 272.462 441 271.995 441H263.245C262.732 441 262.405 440.79 262.265 440.37L254.985 422.03C254.938 421.89 254.868 421.843 254.775 421.89C254.682 421.89 254.588 421.937 254.495 422.03L252.465 425.67C252.372 425.857 252.325 425.997 252.325 426.09V440.16C252.325 440.393 252.232 440.603 252.045 440.79C251.905 440.93 251.718 441 251.485 441H243.295ZM42.3184 511C42.0851 511 41.8751 510.93 41.6884 510.79C41.5484 510.603 41.4784 510.393 41.4784 510.16V462.84C41.4784 462.607 41.5484 462.42 41.6884 462.28C41.8751 462.093 42.0851 462 42.3184 462H50.5084C50.7418 462 50.9284 462.093 51.0684 462.28C51.2551 462.42 51.3484 462.607 51.3484 462.84V510.16C51.3484 510.393 51.2551 510.603 51.0684 510.79C50.9284 510.93 50.7418 511 50.5084 511H42.3184ZM77.6313 462.84C77.6313 462.607 77.7013 462.42 77.8413 462.28C78.0279 462.093 78.2379 462 78.4713 462H86.5913C86.8246 462 87.0113 462.093 87.1513 462.28C87.3379 462.42 87.4313 462.607 87.4313 462.84V510.16C87.4313 510.393 87.3379 510.603 87.1513 510.79C87.0113 510.93 86.8246 511 86.5913 511H77.3513C76.8846 511 76.5813 510.767 76.4413 510.3L67.7613 483.21C67.7146 483.07 67.6213 483.023 67.4813 483.07C67.3879 483.07 67.3413 483.14 67.3413 483.28L67.4113 510.16C67.4113 510.393 67.3179 510.603 67.1313 510.79C66.9913 510.93 66.8046 511 66.5713 511H58.4513C58.2179 511 58.0079 510.93 57.8213 510.79C57.6813 510.603 57.6113 510.393 57.6113 510.16V462.84C57.6113 462.607 57.6813 462.42 57.8213 462.28C58.0079 462.093 58.2179 462 58.4513 462H67.6213C68.0879 462 68.3913 462.233 68.5313 462.7L77.2813 489.79C77.3279 489.93 77.3979 490 77.4913 490C77.6313 489.953 77.7013 489.86 77.7013 489.72L77.6313 462.84ZM122.492 461.93C125.059 461.93 127.345 462.56 129.352 463.82C131.359 465.08 132.899 466.853 133.972 469.14C135.092 471.38 135.652 473.947 135.652 476.84C135.652 481.18 134.485 484.657 132.152 487.27C129.819 489.883 126.762 491.19 122.982 491.19H117.732C117.499 491.19 117.382 491.307 117.382 491.54V510.16C117.382 510.393 117.289 510.603 117.102 510.79C116.962 510.93 116.775 511 116.542 511H108.352C108.119 511 107.909 510.93 107.722 510.79C107.582 510.603 107.512 510.393 107.512 510.16V462.77C107.512 462.537 107.582 462.35 107.722 462.21C107.909 462.023 108.119 461.93 108.352 461.93H122.492ZM120.812 483.49C122.305 483.49 123.495 482.93 124.382 481.81C125.315 480.643 125.782 479.057 125.782 477.05C125.782 474.997 125.315 473.387 124.382 472.22C123.495 471.053 122.305 470.47 120.812 470.47H117.732C117.499 470.47 117.382 470.587 117.382 470.82V483.14C117.382 483.373 117.499 483.49 117.732 483.49H120.812ZM159.441 511C158.928 511 158.601 510.767 158.461 510.3L153.071 490.98C152.978 490.793 152.861 490.7 152.721 490.7H150.341C150.108 490.7 149.991 490.817 149.991 491.05V510.16C149.991 510.393 149.898 510.603 149.711 510.79C149.571 510.93 149.384 511 149.151 511H140.961C140.728 511 140.518 510.93 140.331 510.79C140.191 510.603 140.121 510.393 140.121 510.16V462.84C140.121 462.607 140.191 462.42 140.331 462.28C140.518 462.093 140.728 462 140.961 462H155.101C157.668 462 159.954 462.63 161.961 463.89C163.968 465.103 165.508 466.83 166.581 469.07C167.701 471.31 168.261 473.877 168.261 476.77C168.261 479.523 167.724 481.95 166.651 484.05C165.624 486.15 164.178 487.783 162.311 488.95C162.218 488.997 162.148 489.067 162.101 489.16C162.054 489.207 162.054 489.277 162.101 489.37L168.541 510.02L168.611 510.3C168.611 510.767 168.354 511 167.841 511H159.441ZM150.341 470.47C150.108 470.47 149.991 470.587 149.991 470.82V482.79C149.991 483.023 150.108 483.14 150.341 483.14H153.491C154.938 483.14 156.104 482.58 156.991 481.46C157.924 480.293 158.391 478.753 158.391 476.84C158.391 474.88 157.924 473.34 156.991 472.22C156.104 471.053 154.938 470.47 153.491 470.47H150.341ZM186.51 511.56C182.217 511.56 178.787 510.3 176.22 507.78C173.654 505.26 172.37 501.9 172.37 497.7V475.3C172.37 471.1 173.654 467.74 176.22 465.22C178.787 462.7 182.217 461.44 186.51 461.44C190.804 461.44 194.234 462.7 196.8 465.22C199.414 467.74 200.72 471.1 200.72 475.3V497.7C200.72 501.9 199.414 505.26 196.8 507.78C194.234 510.3 190.804 511.56 186.51 511.56ZM186.51 503.09C187.817 503.09 188.867 502.647 189.66 501.76C190.454 500.827 190.85 499.613 190.85 498.12V474.88C190.85 473.387 190.454 472.197 189.66 471.31C188.867 470.377 187.817 469.91 186.51 469.91C185.204 469.91 184.154 470.377 183.36 471.31C182.614 472.197 182.24 473.387 182.24 474.88V498.12C182.24 499.613 182.614 500.827 183.36 501.76C184.154 502.647 185.204 503.09 186.51 503.09ZM219.386 511.56C215.186 511.56 211.803 510.37 209.236 507.99C206.716 505.563 205.456 502.343 205.456 498.33V474.67C205.456 470.657 206.716 467.46 209.236 465.08C211.803 462.653 215.186 461.44 219.386 461.44C223.586 461.44 226.97 462.653 229.536 465.08C232.103 467.507 233.386 470.727 233.386 474.74V477.4C233.386 477.633 233.293 477.843 233.106 478.03C232.966 478.17 232.78 478.24 232.546 478.24H224.356C224.123 478.24 223.913 478.17 223.726 478.03C223.586 477.843 223.516 477.633 223.516 477.4V474.6C223.516 473.2 223.143 472.08 222.396 471.24C221.65 470.353 220.646 469.91 219.386 469.91C218.173 469.91 217.193 470.353 216.446 471.24C215.7 472.08 215.326 473.2 215.326 474.6V498.4C215.326 499.8 215.7 500.943 216.446 501.83C217.193 502.67 218.173 503.09 219.386 503.09C220.646 503.09 221.65 502.67 222.396 501.83C223.143 500.943 223.516 499.8 223.516 498.4V492.8C223.516 492.567 223.4 492.45 223.166 492.45H220.086C219.853 492.45 219.643 492.38 219.456 492.24C219.316 492.053 219.246 491.843 219.246 491.61V485.38C219.246 485.147 219.316 484.96 219.456 484.82C219.643 484.633 219.853 484.54 220.086 484.54H232.546C232.78 484.54 232.966 484.633 233.106 484.82C233.293 484.96 233.386 485.147 233.386 485.38V498.33C233.386 502.343 232.103 505.563 229.536 507.99C226.97 510.37 223.586 511.56 219.386 511.56ZM258.152 511C257.639 511 257.312 510.767 257.172 510.3L251.782 490.98C251.689 490.793 251.572 490.7 251.432 490.7H249.052C248.819 490.7 248.702 490.817 248.702 491.05V510.16C248.702 510.393 248.609 510.603 248.422 510.79C248.282 510.93 248.095 511 247.862 511H239.672C239.439 511 239.229 510.93 239.042 510.79C238.902 510.603 238.832 510.393 238.832 510.16V462.84C238.832 462.607 238.902 462.42 239.042 462.28C239.229 462.093 239.439 462 239.672 462H253.812C256.379 462 258.665 462.63 260.672 463.89C262.679 465.103 264.219 466.83 265.292 469.07C266.412 471.31 266.972 473.877 266.972 476.77C266.972 479.523 266.435 481.95 265.362 484.05C264.335 486.15 262.889 487.783 261.022 488.95C260.929 488.997 260.859 489.067 260.812 489.16C260.765 489.207 260.765 489.277 260.812 489.37L267.252 510.02L267.322 510.3C267.322 510.767 267.065 511 266.552 511H258.152ZM249.052 470.47C248.819 470.47 248.702 470.587 248.702 470.82V482.79C248.702 483.023 248.819 483.14 249.052 483.14H252.202C253.649 483.14 254.815 482.58 255.702 481.46C256.635 480.293 257.102 478.753 257.102 476.84C257.102 474.88 256.635 473.34 255.702 472.22C254.815 471.053 253.649 470.47 252.202 470.47H249.052ZM297.471 469.63C297.471 469.863 297.378 470.073 297.191 470.26C297.051 470.4 296.865 470.47 296.631 470.47H282.001C281.768 470.47 281.651 470.587 281.651 470.82V481.88C281.651 482.113 281.768 482.23 282.001 482.23H290.401C290.635 482.23 290.821 482.323 290.961 482.51C291.148 482.65 291.241 482.837 291.241 483.07V489.86C291.241 490.093 291.148 490.303 290.961 490.49C290.821 490.63 290.635 490.7 290.401 490.7H282.001C281.768 490.7 281.651 490.817 281.651 491.05V502.18C281.651 502.413 281.768 502.53 282.001 502.53H296.631C296.865 502.53 297.051 502.623 297.191 502.81C297.378 502.95 297.471 503.137 297.471 503.37V510.16C297.471 510.393 297.378 510.603 297.191 510.79C297.051 510.93 296.865 511 296.631 511H272.621C272.388 511 272.178 510.93 271.991 510.79C271.851 510.603 271.781 510.393 271.781 510.16V462.84C271.781 462.607 271.851 462.42 271.991 462.28C272.178 462.093 272.388 462 272.621 462H296.631C296.865 462 297.051 462.093 297.191 462.28C297.378 462.42 297.471 462.607 297.471 462.84V469.63ZM315.075 511.56C312.368 511.56 309.988 511.023 307.935 509.95C305.881 508.877 304.295 507.383 303.175 505.47C302.055 503.51 301.495 501.27 301.495 498.75V496.72C301.495 496.487 301.565 496.3 301.705 496.16C301.891 495.973 302.101 495.88 302.335 495.88H310.385C310.618 495.88 310.805 495.973 310.945 496.16C311.131 496.3 311.225 496.487 311.225 496.72V498.26C311.225 499.707 311.598 500.873 312.345 501.76C313.091 502.647 314.025 503.09 315.145 503.09C316.265 503.09 317.198 502.67 317.945 501.83C318.691 500.99 319.065 499.893 319.065 498.54C319.065 497.14 318.598 495.95 317.665 494.97C316.731 493.943 314.911 492.45 312.205 490.49C309.871 488.81 307.981 487.317 306.535 486.01C305.088 484.703 303.851 483.093 302.825 481.18C301.798 479.267 301.285 477.05 301.285 474.53C301.285 470.563 302.521 467.39 304.995 465.01C307.468 462.63 310.735 461.44 314.795 461.44C318.901 461.44 322.191 462.677 324.665 465.15C327.185 467.623 328.445 470.867 328.445 474.88V476.56C328.445 476.793 328.351 477.003 328.165 477.19C328.025 477.33 327.838 477.4 327.605 477.4H319.555C319.321 477.4 319.111 477.33 318.925 477.19C318.785 477.003 318.715 476.793 318.715 476.56V474.67C318.715 473.223 318.341 472.08 317.595 471.24C316.895 470.353 315.961 469.91 314.795 469.91C313.675 469.91 312.765 470.33 312.065 471.17C311.365 471.963 311.015 473.083 311.015 474.53C311.015 475.93 311.458 477.167 312.345 478.24C313.231 479.313 314.981 480.807 317.595 482.72C320.488 484.867 322.658 486.617 324.105 487.97C325.598 489.277 326.741 490.747 327.535 492.38C328.375 493.967 328.795 495.88 328.795 498.12C328.795 502.227 327.535 505.493 325.015 507.92C322.495 510.347 319.181 511.56 315.075 511.56ZM346.178 511.56C343.471 511.56 341.091 511.023 339.038 509.95C336.985 508.877 335.398 507.383 334.278 505.47C333.158 503.51 332.598 501.27 332.598 498.75V496.72C332.598 496.487 332.668 496.3 332.808 496.16C332.995 495.973 333.205 495.88 333.438 495.88H341.488C341.721 495.88 341.908 495.973 342.048 496.16C342.235 496.3 342.328 496.487 342.328 496.72V498.26C342.328 499.707 342.701 500.873 343.448 501.76C344.195 502.647 345.128 503.09 346.248 503.09C347.368 503.09 348.301 502.67 349.048 501.83C349.795 500.99 350.168 499.893 350.168 498.54C350.168 497.14 349.701 495.95 348.768 494.97C347.835 493.943 346.015 492.45 343.308 490.49C340.975 488.81 339.085 487.317 337.638 486.01C336.191 484.703 334.955 483.093 333.928 481.18C332.901 479.267 332.388 477.05 332.388 474.53C332.388 470.563 333.625 467.39 336.098 465.01C338.571 462.63 341.838 461.44 345.898 461.44C350.005 461.44 353.295 462.677 355.768 465.15C358.288 467.623 359.548 470.867 359.548 474.88V476.56C359.548 476.793 359.455 477.003 359.268 477.19C359.128 477.33 358.941 477.4 358.708 477.4H350.658C350.425 477.4 350.215 477.33 350.028 477.19C349.888 477.003 349.818 476.793 349.818 476.56V474.67C349.818 473.223 349.445 472.08 348.698 471.24C347.998 470.353 347.065 469.91 345.898 469.91C344.778 469.91 343.868 470.33 343.168 471.17C342.468 471.963 342.118 473.083 342.118 474.53C342.118 475.93 342.561 477.167 343.448 478.24C344.335 479.313 346.085 480.807 348.698 482.72C351.591 484.867 353.761 486.617 355.208 487.97C356.701 489.277 357.845 490.747 358.638 492.38C359.478 493.967 359.898 495.88 359.898 498.12C359.898 502.227 358.638 505.493 356.118 507.92C353.598 510.347 350.285 511.56 346.178 511.56Z" fill="black"/>
<path d="M51.0977 61.944C51.279 61.5813 51.619 61.4 52.1177 61.4H60.0057C60.2324 61.4 60.4137 61.4907 60.5497 61.672C60.731 61.808 60.8217 61.9893 60.8217 62.216V108.184C60.8217 108.411 60.731 108.615 60.5497 108.796C60.4137 108.932 60.2324 109 60.0057 109H52.0497C51.823 109 51.619 108.932 51.4377 108.796C51.3017 108.615 51.2337 108.411 51.2337 108.184V77.652C51.2337 77.4707 51.1884 77.38 51.0977 77.38C51.007 77.38 50.9164 77.448 50.8257 77.584L45.5217 86.968C45.295 87.3307 45.1137 87.512 44.9777 87.512C44.8417 87.512 44.6604 87.3307 44.4337 86.968L39.1297 77.584C39.039 77.448 38.9484 77.38 38.8577 77.38C38.767 77.38 38.7217 77.4707 38.7217 77.652V108.184C38.7217 108.411 38.631 108.615 38.4497 108.796C38.3137 108.932 38.1324 109 37.9057 109H29.9497C29.723 109 29.519 108.932 29.3377 108.796C29.2017 108.615 29.1337 108.411 29.1337 108.184V62.216C29.1337 61.9893 29.2017 61.808 29.3377 61.672C29.519 61.4907 29.723 61.4 29.9497 61.4H37.7697C38.223 61.4 38.563 61.5813 38.7897 61.944L44.8417 72.756C44.9777 72.9373 45.1137 72.9373 45.2497 72.756L51.0977 61.944ZM86.5836 109C86.0396 109 85.7449 108.751 85.6996 108.252L84.6116 101.724C84.6116 101.497 84.4756 101.384 84.2036 101.384H75.5676C75.2956 101.384 75.1596 101.497 75.1596 101.724L74.0716 108.252C74.0263 108.751 73.7316 109 73.1876 109H65.2316C64.6423 109 64.4156 108.705 64.5516 108.116L74.5476 62.148C74.6383 61.6493 74.9329 61.4 75.4316 61.4H84.6116C85.1103 61.4 85.4049 61.6493 85.4956 62.148L95.4236 108.116L95.4916 108.388C95.4916 108.796 95.2423 109 94.7436 109H86.5836ZM76.5196 93.632C76.5196 93.8587 76.6103 93.972 76.7916 93.972H82.9116C83.1383 93.972 83.2289 93.8587 83.1836 93.632L79.9876 75.068C79.9423 74.932 79.8743 74.864 79.7836 74.864C79.6929 74.864 79.6249 74.932 79.5796 75.068L76.5196 93.632ZM100.212 109C99.9856 109 99.7816 108.932 99.6003 108.796C99.4643 108.615 99.3963 108.411 99.3963 108.184V62.216C99.3963 61.9893 99.4643 61.808 99.6003 61.672C99.7816 61.4907 99.9856 61.4 100.212 61.4H108.168C108.395 61.4 108.576 61.4907 108.712 61.672C108.894 61.808 108.984 61.9893 108.984 62.216V108.184C108.984 108.411 108.894 108.615 108.712 108.796C108.576 108.932 108.395 109 108.168 109H100.212ZM134.516 62.216C134.516 61.9893 134.584 61.808 134.72 61.672C134.902 61.4907 135.106 61.4 135.332 61.4H143.22C143.447 61.4 143.628 61.4907 143.764 61.672C143.946 61.808 144.036 61.9893 144.036 62.216V108.184C144.036 108.411 143.946 108.615 143.764 108.796C143.628 108.932 143.447 109 143.22 109H134.244C133.791 109 133.496 108.773 133.36 108.32L124.928 82.004C124.883 81.868 124.792 81.8227 124.656 81.868C124.566 81.868 124.52 81.936 124.52 82.072L124.588 108.184C124.588 108.411 124.498 108.615 124.316 108.796C124.18 108.932 123.999 109 123.772 109H115.884C115.658 109 115.454 108.932 115.272 108.796C115.136 108.615 115.068 108.411 115.068 108.184V62.216C115.068 61.9893 115.136 61.808 115.272 61.672C115.454 61.4907 115.658 61.4 115.884 61.4H124.792C125.246 61.4 125.54 61.6267 125.676 62.08L134.176 88.396C134.222 88.532 134.29 88.6 134.38 88.6C134.516 88.5547 134.584 88.464 134.584 88.328L134.516 62.216ZM176.382 61.4C176.609 61.4 176.79 61.4907 176.926 61.672C177.107 61.808 177.198 61.9893 177.198 62.216V68.812C177.198 69.0387 177.107 69.2427 176.926 69.424C176.79 69.56 176.609 69.628 176.382 69.628H167.882C167.655 69.628 167.542 69.7413 167.542 69.968V108.184C167.542 108.411 167.451 108.615 167.27 108.796C167.134 108.932 166.953 109 166.726 109H158.77C158.543 109 158.339 108.932 158.158 108.796C158.022 108.615 157.954 108.411 157.954 108.184V69.968C157.954 69.7413 157.841 69.628 157.614 69.628H149.454C149.227 69.628 149.023 69.56 148.842 69.424C148.706 69.2427 148.638 69.0387 148.638 68.812V62.216C148.638 61.9893 148.706 61.808 148.842 61.672C149.023 61.4907 149.227 61.4 149.454 61.4H176.382ZM206.762 68.812C206.762 69.0387 206.672 69.2427 206.49 69.424C206.354 69.56 206.173 69.628 205.946 69.628H191.734C191.508 69.628 191.394 69.7413 191.394 69.968V80.712C191.394 80.9387 191.508 81.052 191.734 81.052H199.894C200.121 81.052 200.302 81.1427 200.438 81.324C200.62 81.46 200.71 81.6413 200.71 81.868V88.464C200.71 88.6907 200.62 88.8947 200.438 89.076C200.302 89.212 200.121 89.28 199.894 89.28H191.734C191.508 89.28 191.394 89.3933 191.394 89.62V100.432C191.394 100.659 191.508 100.772 191.734 100.772H205.946C206.173 100.772 206.354 100.863 206.49 101.044C206.672 101.18 206.762 101.361 206.762 101.588V108.184C206.762 108.411 206.672 108.615 206.49 108.796C206.354 108.932 206.173 109 205.946 109H182.622C182.396 109 182.192 108.932 182.01 108.796C181.874 108.615 181.806 108.411 181.806 108.184V62.216C181.806 61.9893 181.874 61.808 182.01 61.672C182.192 61.4907 182.396 61.4 182.622 61.4H205.946C206.173 61.4 206.354 61.4907 206.49 61.672C206.672 61.808 206.762 61.9893 206.762 62.216V68.812ZM231.071 62.216C231.071 61.9893 231.139 61.808 231.275 61.672C231.456 61.4907 231.66 61.4 231.887 61.4H239.775C240.002 61.4 240.183 61.4907 240.319 61.672C240.5 61.808 240.591 61.9893 240.591 62.216V108.184C240.591 108.411 240.5 108.615 240.319 108.796C240.183 108.932 240.002 109 239.775 109H230.799C230.346 109 230.051 108.773 229.915 108.32L221.483 82.004C221.438 81.868 221.347 81.8227 221.211 81.868C221.12 81.868 221.075 81.936 221.075 82.072L221.143 108.184C221.143 108.411 221.052 108.615 220.871 108.796C220.735 108.932 220.554 109 220.327 109H212.439C212.212 109 212.008 108.932 211.827 108.796C211.691 108.615 211.623 108.411 211.623 108.184V62.216C211.623 61.9893 211.691 61.808 211.827 61.672C212.008 61.4907 212.212 61.4 212.439 61.4H221.347C221.8 61.4 222.095 61.6267 222.231 62.08L230.731 88.396C230.776 88.532 230.844 88.6 230.935 88.6C231.071 88.5547 231.139 88.464 231.139 88.328L231.071 62.216ZM266.545 109C266.001 109 265.706 108.751 265.661 108.252L264.573 101.724C264.573 101.497 264.437 101.384 264.165 101.384H255.529C255.257 101.384 255.121 101.497 255.121 101.724L254.033 108.252C253.987 108.751 253.693 109 253.149 109H245.193C244.603 109 244.377 108.705 244.513 108.116L254.509 62.148C254.599 61.6493 254.894 61.4 255.393 61.4H264.573C265.071 61.4 265.366 61.6493 265.457 62.148L275.385 108.116L275.453 108.388C275.453 108.796 275.203 109 274.705 109H266.545ZM256.481 93.632C256.481 93.8587 256.571 93.972 256.753 93.972H262.873C263.099 93.972 263.19 93.8587 263.145 93.632L259.949 75.068C259.903 74.932 259.835 74.864 259.745 74.864C259.654 74.864 259.586 74.932 259.541 75.068L256.481 93.632ZM298.805 62.216C298.805 61.9893 298.873 61.808 299.009 61.672C299.191 61.4907 299.395 61.4 299.621 61.4H307.509C307.736 61.4 307.917 61.4907 308.053 61.672C308.235 61.808 308.325 61.9893 308.325 62.216V108.184C308.325 108.411 308.235 108.615 308.053 108.796C307.917 108.932 307.736 109 307.509 109H298.533C298.08 109 297.785 108.773 297.649 108.32L289.217 82.004C289.172 81.868 289.081 81.8227 288.945 81.868C288.855 81.868 288.809 81.936 288.809 82.072L288.877 108.184C288.877 108.411 288.787 108.615 288.605 108.796C288.469 108.932 288.288 109 288.061 109H280.173C279.947 109 279.743 108.932 279.561 108.796C279.425 108.615 279.357 108.411 279.357 108.184V62.216C279.357 61.9893 279.425 61.808 279.561 61.672C279.743 61.4907 279.947 61.4 280.173 61.4H289.081C289.535 61.4 289.829 61.6267 289.965 62.08L298.465 88.396C298.511 88.532 298.579 88.6 298.669 88.6C298.805 88.5547 298.873 88.464 298.873 88.328L298.805 62.216ZM327.139 109.544C323.059 109.544 319.772 108.343 317.279 105.94C314.831 103.492 313.607 100.228 313.607 96.148V74.116C313.607 70.0813 314.831 66.8627 317.279 64.46C319.772 62.0573 323.059 60.856 327.139 60.856C331.264 60.856 334.551 62.0573 336.999 64.46C339.492 66.8627 340.739 70.0813 340.739 74.116V74.864C340.739 75.0907 340.648 75.2947 340.467 75.476C340.331 75.612 340.15 75.68 339.923 75.68L331.967 76.02C331.423 76.02 331.151 75.7707 331.151 75.272V73.504C331.151 72.1893 330.788 71.124 330.063 70.308C329.338 69.492 328.363 69.084 327.139 69.084C325.96 69.084 325.008 69.492 324.283 70.308C323.558 71.124 323.195 72.1893 323.195 73.504V96.964C323.195 98.2787 323.558 99.344 324.283 100.16C325.008 100.931 325.96 101.316 327.139 101.316C328.363 101.316 329.338 100.931 330.063 100.16C330.788 99.344 331.151 98.2787 331.151 96.964V95.128C331.151 94.9013 331.219 94.72 331.355 94.584C331.536 94.4027 331.74 94.312 331.967 94.312L339.923 94.652C340.15 94.652 340.331 94.7427 340.467 94.924C340.648 95.06 340.739 95.2413 340.739 95.468V96.148C340.739 100.228 339.492 103.492 336.999 105.94C334.506 108.343 331.219 109.544 327.139 109.544ZM370.786 68.812C370.786 69.0387 370.695 69.2427 370.514 69.424C370.378 69.56 370.197 69.628 369.97 69.628H355.758C355.531 69.628 355.418 69.7413 355.418 69.968V80.712C355.418 80.9387 355.531 81.052 355.758 81.052H363.918C364.145 81.052 364.326 81.1427 364.462 81.324C364.643 81.46 364.734 81.6413 364.734 81.868V88.464C364.734 88.6907 364.643 88.8947 364.462 89.076C364.326 89.212 364.145 89.28 363.918 89.28H355.758C355.531 89.28 355.418 89.3933 355.418 89.62V100.432C355.418 100.659 355.531 100.772 355.758 100.772H369.97C370.197 100.772 370.378 100.863 370.514 101.044C370.695 101.18 370.786 101.361 370.786 101.588V108.184C370.786 108.411 370.695 108.615 370.514 108.796C370.378 108.932 370.197 109 369.97 109H346.646C346.419 109 346.215 108.932 346.034 108.796C345.898 108.615 345.83 108.411 345.83 108.184V62.216C345.83 61.9893 345.898 61.808 346.034 61.672C346.215 61.4907 346.419 61.4 346.646 61.4H369.97C370.197 61.4 370.378 61.4907 370.514 61.672C370.695 61.808 370.786 61.9893 370.786 62.216V68.812Z" fill="#FECB00"/>
<path d="M341 262.565V283.816L277.013 310.222V287.705L341 262.565ZM277.013 232L337.762 257.32L310.656 267.81L277.013 254.427V232Z" fill="black"/>
<path d="M73 279.656V258.405L136.987 232V254.517L73 279.656ZM136.987 310.222L76.2383 284.901L103.344 274.411L136.987 287.795V310.222Z" fill="black"/>
<path d="M232.458 207V240.501H224.482V301.408H232.458V335H182V301.408H189.976V240.501H182V207H232.458Z" fill="black" fill-opacity="0.29" stroke="black" stroke-width="8"/>
</svg>
